<?xml version="1.0" encoding="UTF-8" standalone="no"?>
<svg
   xmlns:dc="http://purl.org/dc/elements/1.1/"
   xmlns:cc="http://creativecommons.org/ns#"
   xmlns:rdf="http://www.w3.org/1999/02/22-rdf-syntax-ns#"
   xmlns:svg="http://www.w3.org/2000/svg"
   xmlns="http://www.w3.org/2000/svg"
   xmlns:sodipodi="http://sodipodi.sourceforge.net/DTD/sodipodi-0.dtd"
   xmlns:inkscape="http://www.inkscape.org/namespaces/inkscape"
   id="svg871"
   width="48"
   viewBox="0 0 12.7 12.7"
   version="1.1"
   height="48"
   sodipodi:docname="icon_min.svg"
   inkscape:version="0.92.3 (2405546, 2018-03-11)">
  <sodipodi:namedview
     pagecolor="#ffff00"
     bordercolor="#666666"
     borderopacity="1"
     objecttolerance="10"
     gridtolerance="10"
     guidetolerance="10"
     inkscape:pageopacity="0"
     inkscape:pageshadow="2"
     inkscape:window-width="1916"
     inkscape:window-height="1030"
     id="namedview4554"
     showgrid="false"
     inkscape:zoom="9.8333333"
     inkscape:cx="48.582584"
     inkscape:cy="24.534639"
     inkscape:window-x="2"
     inkscape:window-y="25"
     inkscape:window-maximized="1"
     inkscape:current-layer="svg871" />
  <title
     id="title4666">is.zi.Anders</title>
  <defs
     id="defs2" />
  <metadata
     id="metadata4664">
    <rdf:RDF>
      <cc:Work
         rdf:about="">
        <dc:title>is.zi.Anders</dc:title>
        <dc:rights>
          <cc:Agent>
            <dc:title>©2019 All rights reserved</dc:title>
          </cc:Agent>
        </dc:rights>
        <dc:creator>
          <cc:Agent>
            <dc:title>Zi.iS</dc:title>
          </cc:Agent>
        </dc:creator>
        <dc:format>image/svg+xml</dc:format>
        <dc:type
           rdf:resource="http://purl.org/dc/dcmitype/StillImage" />
      </cc:Work>
    </rdf:RDF>
  </metadata>
  <path
     inkscape:connector-curvature="0"
     style="fill:#ffffff;fill-opacity:1;fill-rule:evenodd;stroke:none;stroke-width:0.91195971;stroke-linecap:butt;stroke-linejoin:round;stroke-miterlimit:4;stroke-dasharray:none;stroke-opacity:1"
     d="M 6.3190794,0.05798819 C 5.9426716,0.06650589 5.5649723,0.20673174 5.2464729,0.46940531 4.9279737,0.73207944 4.6741862,1.1480839 4.6748244,1.6485185 l 0.00895,6.7490323 c -0.8067533,0.9428387 -0.963269,2.0049102 -0.5664616,2.8016902 0.4294802,0.862386 1.3181933,1.43056 2.2531336,1.443023 1.0119689,0.01349 1.8836478,-0.646361 2.2569037,-1.541047 C 8.9694594,10.281194 8.7824795,9.2475876 8.0236569,8.3942519 L 8.0005661,1.6970591 C 7.9988334,1.1807272 7.7831312,0.73749949 7.4590791,0.45715241 7.1350267,0.1768055 6.7223889,0.04886431 6.3190794,0.05798819 Z M 6.1725151,3.0962544 h 0.3506234 v 5.9412787 a 1.0674487,1.0955395 0 0 1 0.8921109,1.0792039 1.0674487,1.0955395 0 0 1 -1.0674226,1.0957 1.0674487,1.0955395 0 0 1 -1.0674226,-1.0957 1.0674487,1.0955395 0 0 1 0.8921109,-1.0806176 z"
     id="path4539-7" />
</svg>
